<svg width="18" height="18" viewBox="0 0 18 18" fill="none" xmlns="http://www.w3.org/2000/svg">
<path d="M12.4531 8.28598C12.9098 7.50754 13.1071 6.60396 13.0163 5.70598C12.8821 4.36798 12.1351 3.18523 10.9141 2.37598L10.0853 3.62548C10.9246 4.18198 11.4353 4.97473 11.5238 5.85598C11.5646 6.26555 11.5136 6.67907 11.3745 7.06646C11.2355 7.45386 11.0118 7.80538 10.7198 8.09548L9.82581 8.98948L11.0393 9.34573C14.2133 10.2757 14.2501 13.4677 14.2501 13.5H15.7501C15.7501 12.1582 15.0331 9.53623 12.4531 8.28598Z" fill="#91A4B7"/>
<path d="M7.125 9C8.7795 9 10.125 7.6545 10.125 6C10.125 4.3455 8.7795 3 7.125 3C5.4705 3 4.125 4.3455 4.125 6C4.125 7.6545 5.4705 9 7.125 9ZM7.125 4.5C7.95225 4.5 8.625 5.17275 8.625 6C8.625 6.82725 7.95225 7.5 7.125 7.5C6.29775 7.5 5.625 6.82725 5.625 6C5.625 5.17275 6.29775 4.5 7.125 4.5ZM8.25 9.75H6C3.51825 9.75 1.5 11.7682 1.5 14.25V15H3V14.25C3 12.5955 4.3455 11.25 6 11.25H8.25C9.9045 11.25 11.25 12.5955 11.25 14.25V15H12.75V14.25C12.75 11.7682 10.7318 9.75 8.25 9.75Z" fill="#91A4B7"/>
</svg>
