<svg width="18" height="18" viewBox="0 0 18 18" fill="none" xmlns="http://www.w3.org/2000/svg">
<path d="M3.7522 16.5H14.2522C15.0794 16.5 15.7522 15.8272 15.7522 15V8.24997C15.7523 8.15147 15.7329 8.05392 15.6952 7.96292C15.6575 7.87192 15.6022 7.78927 15.5324 7.71972L9.53245 1.71972C9.46286 1.65001 9.3802 1.59471 9.28922 1.55697C9.19823 1.51924 9.1007 1.49982 9.0022 1.49982C8.9037 1.49982 8.80616 1.51924 8.71518 1.55697C8.62419 1.59471 8.54154 1.65001 8.47195 1.71972L2.47195 7.71972C2.4022 7.78927 2.34688 7.87192 2.30917 7.96292C2.27146 8.05392 2.2521 8.15147 2.2522 8.24997V15C2.2522 15.8272 2.92495 16.5 3.7522 16.5V16.5ZM7.5022 15V11.25H10.5022V15H7.5022ZM3.7522 8.56047L9.0022 3.31047L14.2522 8.56047L14.2529 15H12.0022V11.25C12.0022 10.4227 11.3294 9.74997 10.5022 9.74997H7.5022C6.67495 9.74997 6.0022 10.4227 6.0022 11.25V15H3.7522V8.56047Z" fill="#91A4B7"/>
</svg>
