<svg width="18" height="18" viewBox="0 0 40 40" fill="none" xmlns="http://www.w3.org/2000/svg">
<path id="Vector" d="M28.3333 10C30.1743 10 31.6667 8.50766 31.6667 6.66671C31.6667 4.82576 30.1743 3.33337 28.3333 3.33337C26.4924 3.33337 25 4.82576 25 6.66671C25 8.50766 26.4924 10 28.3333 10Z" fill="#030913"/>
<path id="Vector_2" d="M26.295 18.2816C26.6776 18.8517 27.2264 19.2903 27.8669 19.5378C28.5073 19.7853 29.2084 19.8297 29.875 19.6649L35.4017 18.2833L34.5967 15.0499L29.07 16.4316L26.7717 12.9866C26.2806 12.2509 25.5185 11.7392 24.6517 11.5633L18.2417 10.2799C17.5246 10.136 16.78 10.2322 16.1231 10.5536C15.4661 10.875 14.9332 11.4038 14.6067 12.0583L11.8433 17.5849L14.825 19.0766L17.5883 13.5483L20.8667 14.2049L12.39 28.3333H5V31.6666H12.39C13.5533 31.6666 14.6483 31.0466 15.2483 30.0483L18.445 24.7216L27.06 26.4449L30.0867 35.5266L33.2467 34.4716L30.2217 25.3916C30.035 24.8341 29.7047 24.3357 29.264 23.9466C28.8234 23.5574 28.2879 23.2913 27.7117 23.1749L22.6467 22.1633L25.6 17.2399L26.295 18.2816Z" fill="#030913"/>
</svg>
