<svg width="18" height="18" viewBox="0 0 18 18" fill="none" xmlns="http://www.w3.org/2000/svg">
<path d="M14.6205 6.7875C14.3134 6.0179 13.8529 5.31886 13.267 4.73296C12.6811 4.14706 11.9821 3.68655 11.2125 3.3795C11.0347 2.316 10.1138 1.5 9 1.5C7.88625 1.5 6.96525 2.316 6.7875 3.3795C6.01781 3.6864 5.31869 4.14685 4.73277 4.73277C4.14685 5.31869 3.6864 6.01781 3.3795 6.7875C2.316 6.96525 1.5 7.88625 1.5 9C1.5 10.1138 2.316 11.0347 3.3795 11.2125C3.68655 11.9821 4.14706 12.6811 4.73296 13.267C5.31886 13.8529 6.0179 14.3134 6.7875 14.6205C6.96525 15.684 7.88625 16.5 9 16.5C10.1138 16.5 11.0347 15.684 11.2125 14.6205C11.9821 14.3134 12.6811 13.8529 13.267 13.267C13.8529 12.6811 14.3134 11.9821 14.6205 11.2125C15.684 11.0347 16.5 10.1138 16.5 9C16.5 7.88625 15.684 6.96525 14.6205 6.7875ZM9 3C9.19891 3 9.38968 3.07902 9.53033 3.21967C9.67098 3.36032 9.75 3.55109 9.75 3.75C9.75 3.795 9.73275 3.8325 9.7245 3.87525C9.71391 3.94763 9.69295 4.0181 9.66225 4.0845C9.65175 4.10475 9.63675 4.12125 9.624 4.14075C9.59065 4.19777 9.55035 4.25043 9.504 4.2975C9.474 4.32525 9.4365 4.344 9.402 4.3665C9.3615 4.3935 9.324 4.425 9.27825 4.44375C9.192 4.479 9.099 4.5 9 4.5C8.901 4.5 8.808 4.479 8.72175 4.44375C8.676 4.42575 8.6385 4.39425 8.598 4.3665C8.5635 4.344 8.526 4.32525 8.496 4.2975C8.44965 4.25043 8.40935 4.19777 8.376 4.14075C8.36325 4.12125 8.34825 4.10475 8.33775 4.0845C8.30716 4.01806 8.2862 3.9476 8.2755 3.87525C8.26725 3.8325 8.25 3.795 8.25 3.75C8.25 3.55109 8.32902 3.36032 8.46967 3.21967C8.61032 3.07902 8.80109 3 9 3V3ZM3.75 8.25C3.795 8.25 3.8325 8.26725 3.87525 8.2755C3.9495 8.28825 4.02075 8.30625 4.0845 8.33775C4.10475 8.34825 4.12125 8.36325 4.14075 8.376C4.197 8.41125 4.2525 8.44875 4.2975 8.496C4.32525 8.526 4.344 8.5635 4.3665 8.598C4.3935 8.6385 4.425 8.676 4.44375 8.72175C4.479 8.808 4.5 8.901 4.5 9C4.5 9.099 4.479 9.192 4.44375 9.27825C4.42575 9.324 4.39425 9.3615 4.3665 9.402C4.344 9.4365 4.32525 9.474 4.2975 9.504C4.2525 9.55125 4.197 9.58875 4.14075 9.624C4.12125 9.63675 4.10475 9.65175 4.0845 9.66225C4.01806 9.69284 3.9476 9.7138 3.87525 9.7245C3.8325 9.73275 3.795 9.75 3.75 9.75C3.55109 9.75 3.36032 9.67098 3.21967 9.53033C3.07902 9.38968 3 9.19891 3 9C3 8.80109 3.07902 8.61032 3.21967 8.46967C3.36032 8.32902 3.55109 8.25 3.75 8.25ZM9 15C8.80109 15 8.61032 14.921 8.46967 14.7803C8.32902 14.6397 8.25 14.4489 8.25 14.25C8.25 14.205 8.26725 14.1675 8.2755 14.1248C8.28825 14.0505 8.30625 13.9793 8.33775 13.9155C8.34825 13.8953 8.36325 13.8788 8.376 13.8593C8.41125 13.803 8.44875 13.7475 8.496 13.7025C8.526 13.6748 8.5635 13.656 8.598 13.6335C8.6385 13.6065 8.676 13.575 8.72175 13.5563C8.808 13.521 8.901 13.5 9 13.5C9.099 13.5 9.192 13.521 9.27825 13.5563C9.324 13.5743 9.3615 13.6057 9.402 13.6335C9.4365 13.656 9.474 13.6748 9.504 13.7025C9.55125 13.7475 9.58875 13.803 9.624 13.8593C9.63675 13.8788 9.65175 13.8953 9.66225 13.9155C9.69375 13.9793 9.71175 14.0513 9.7245 14.1248C9.73275 14.1675 9.75 14.205 9.75 14.25C9.75 14.4489 9.67098 14.6397 9.53033 14.7803C9.38968 14.921 9.19891 15 9 15ZM10.9373 13.116C10.9328 13.1078 10.9245 13.1017 10.9207 13.0942C10.7354 12.7866 10.4793 12.5277 10.1737 12.339C10.1332 12.3142 10.092 12.294 10.0493 12.2715C9.93267 12.2093 9.81067 12.1578 9.68475 12.1177C9.63675 12.102 9.58875 12.0848 9.53925 12.072C9.3645 12.0293 9.186 12 9 12C8.814 12 8.6355 12.0293 8.4615 12.0728C8.412 12.0855 8.364 12.102 8.31525 12.1185C8.18963 12.1587 8.06789 12.2102 7.9515 12.2723C7.9095 12.294 7.8675 12.315 7.827 12.3397C7.52142 12.5284 7.26531 12.7874 7.08 13.095C7.0755 13.1032 7.06725 13.1093 7.0635 13.1168C6.10898 12.6617 5.33979 11.8925 4.88475 10.938C4.893 10.9335 4.899 10.9253 4.9065 10.9215C5.21414 10.7362 5.47307 10.4801 5.66175 10.1745C5.6865 10.134 5.7075 10.092 5.72925 10.05C5.7915 9.9345 5.84175 9.813 5.883 9.68625C5.89875 9.6375 5.916 9.5895 5.92875 9.54C5.97075 9.3645 6 9.186 6 9C6 8.814 5.97075 8.6355 5.92725 8.4615C5.91393 8.41241 5.89867 8.36388 5.8815 8.316C5.84142 8.19008 5.78996 8.06808 5.72775 7.9515C5.70525 7.90875 5.685 7.8675 5.66025 7.827C5.47157 7.52142 5.21264 7.26531 4.905 7.08C4.8975 7.0755 4.8915 7.06725 4.884 7.06275C5.33904 6.10823 6.10823 5.33904 7.06275 4.884C7.06725 4.8915 7.0755 4.8975 7.07925 4.90575C7.26525 5.214 7.52025 5.472 7.82625 5.661C7.86675 5.68575 7.90875 5.70675 7.95075 5.7285C8.067 5.79075 8.18775 5.841 8.31525 5.88225C8.36325 5.898 8.41125 5.91525 8.46075 5.928C8.6355 5.97075 8.81325 6 9 6C9.23283 5.99686 9.46369 5.95687 9.684 5.8815C9.8115 5.84025 9.93225 5.79 10.0485 5.72775C10.0905 5.706 10.1325 5.685 10.173 5.66025C10.479 5.47125 10.734 5.21325 10.92 4.905C10.9245 4.89675 10.9327 4.89075 10.9365 4.88325C11.891 5.33829 12.6602 6.10748 13.1152 7.062C13.107 7.0665 13.101 7.07475 13.0935 7.0785C12.7859 7.26381 12.5269 7.51992 12.3383 7.8255C12.3135 7.866 12.2925 7.908 12.2708 7.95C12.2085 8.06625 12.1583 8.187 12.117 8.3145C12.1013 8.3625 12.084 8.4105 12.0712 8.46C12.0292 8.6355 12 8.81325 12 9C12.0031 9.23283 12.0431 9.46369 12.1185 9.684C12.1598 9.8115 12.21 9.93225 12.2723 10.0485C12.294 10.0905 12.315 10.1325 12.3397 10.173C12.5287 10.479 12.7867 10.734 13.095 10.92C13.1032 10.9245 13.1093 10.9327 13.1168 10.9365C12.6619 11.8916 11.8924 12.6612 10.9373 13.116V13.116ZM14.25 9.75C14.205 9.75 14.1675 9.73275 14.1248 9.7245C14.0524 9.71391 13.9819 9.69295 13.9155 9.66225C13.8953 9.65175 13.8788 9.63675 13.8593 9.624C13.8022 9.59065 13.7496 9.55035 13.7025 9.504C13.6748 9.474 13.656 9.4365 13.6335 9.402C13.6065 9.3615 13.575 9.324 13.5563 9.27825C13.521 9.192 13.5 9.099 13.5 9C13.5 8.901 13.521 8.808 13.5563 8.72175C13.5743 8.676 13.6057 8.6385 13.6335 8.598C13.656 8.5635 13.6748 8.526 13.7025 8.496C13.7475 8.44875 13.803 8.41125 13.8593 8.376C13.8788 8.36325 13.8953 8.34825 13.9155 8.33775C13.9793 8.30625 14.0513 8.28825 14.1248 8.2755C14.1675 8.26725 14.205 8.25 14.25 8.25C14.4489 8.25 14.6397 8.32902 14.7803 8.46967C14.921 8.61032 15 8.80109 15 9C15 9.19891 14.921 9.38968 14.7803 9.53033C14.6397 9.67098 14.4489 9.75 14.25 9.75Z" fill="#91A4B7"/>
</svg>
