<svg width="18" height="18" viewBox="0 0 40 40" fill="none" xmlns="http://www.w3.org/2000/svg">
<g id="bx-search-alt 1">
<g id="Group">
<path id="Vector" d="M16.6668 29.9999C19.6251 29.9993 22.4982 29.009 24.8285 27.1866L32.1552 34.5132L34.5118 32.1566L27.1852 24.8299C29.0085 22.4994 29.9995 19.6256 30.0002 16.6666C30.0002 9.31492 24.0185 3.33325 16.6668 3.33325C9.31516 3.33325 3.3335 9.31492 3.3335 16.6666C3.3335 24.0182 9.31516 29.9999 16.6668 29.9999ZM16.6668 6.66658C22.1818 6.66658 26.6668 11.1516 26.6668 16.6666C26.6668 22.1816 22.1818 26.6666 16.6668 26.6666C11.1518 26.6666 6.66683 22.1816 6.66683 16.6666C6.66683 11.1516 11.1518 6.66658 16.6668 6.66658Z" fill="#030913"/>
<path id="Vector_2" d="M19.0199 14.3099C19.6515 14.9432 19.9999 15.7799 19.9999 16.6666H23.3332C23.3347 15.7906 23.1625 14.9231 22.8267 14.114C22.4908 13.305 21.9979 12.5706 21.3765 11.9532C18.8532 9.43323 14.4782 9.43323 11.9565 11.9532L14.3099 14.3132C15.5765 13.0499 17.7599 13.0532 19.0199 14.3099Z" fill="#030913"/>
</g>
</g>
</svg>
