<svg width="40" height="40" viewBox="0 0 40 40" fill="none" xmlns="http://www.w3.org/2000/svg">
<rect width="40" height="40" rx="8" fill="url(#paint0_linear_103_166)"/>
<path d="M16.4148 27.2557C15.0682 27.2557 13.9091 26.983 12.9375 26.4375C11.9716 25.8864 11.2273 25.108 10.7045 24.1023C10.1818 23.0909 9.92045 21.8949 9.92045 20.5142C9.92045 19.1676 10.1818 17.9858 10.7045 16.9688C11.2273 15.9517 11.9631 15.1591 12.9119 14.5909C13.8665 14.0227 14.9858 13.7386 16.2699 13.7386C17.1335 13.7386 17.9375 13.8778 18.6818 14.1562C19.4318 14.429 20.0852 14.8409 20.642 15.392C21.2045 15.9432 21.642 16.6364 21.9545 17.4716C22.267 18.3011 22.4233 19.2727 22.4233 20.3864V21.3835H11.3693V19.1335H19.0057C19.0057 18.6108 18.892 18.1477 18.6648 17.7443C18.4375 17.3409 18.1222 17.0256 17.7188 16.7983C17.321 16.5653 16.858 16.4489 16.3295 16.4489C15.7784 16.4489 15.2898 16.5767 14.8636 16.8324C14.4432 17.0824 14.1136 17.4205 13.875 17.8466C13.6364 18.267 13.5142 18.7358 13.5085 19.2528V21.392C13.5085 22.0398 13.6278 22.5994 13.8665 23.071C14.1108 23.5426 14.4545 23.9062 14.8977 24.1619C15.3409 24.4176 15.8665 24.5455 16.4744 24.5455C16.8778 24.5455 17.2472 24.4886 17.5824 24.375C17.9176 24.2614 18.2045 24.0909 18.4432 23.8636C18.6818 23.6364 18.8636 23.358 18.9886 23.0284L22.3466 23.25C22.1761 24.0568 21.8267 24.7614 21.2983 25.3636C20.7756 25.9602 20.0994 26.4261 19.2699 26.7614C18.446 27.0909 17.4943 27.2557 16.4148 27.2557ZM26.9148 27.2216C26.3523 27.2216 25.8693 27.0227 25.4659 26.625C25.0682 26.2216 24.8693 25.7386 24.8693 25.1761C24.8693 24.6193 25.0682 24.142 25.4659 23.7443C25.8693 23.3466 26.3523 23.1477 26.9148 23.1477C27.4602 23.1477 27.9375 23.3466 28.3466 23.7443C28.7557 24.142 28.9602 24.6193 28.9602 25.1761C28.9602 25.5511 28.8636 25.8949 28.6705 26.2074C28.483 26.5142 28.2358 26.7614 27.929 26.9489C27.6222 27.1307 27.2841 27.2216 26.9148 27.2216Z" fill="white"/>
<defs>
<linearGradient id="paint0_linear_103_166" x1="20" y1="0" x2="20" y2="40" gradientUnits="userSpaceOnUse">
<stop stop-color="#FCB045"/>
<stop offset="0.489583" stop-color="#FD1D1D" stop-opacity="0.6"/>
<stop offset="0.953125" stop-color="#1C8CD2" stop-opacity="0.77"/>
</linearGradient>
</defs>
</svg>
