<svg width="130" height="40" viewBox="0 0 130 40" fill="none" xmlns="http://www.w3.org/2000/svg">
<rect width="40" height="40" rx="8" fill="url(#paint0_linear_103_182)"/>
<path d="M16.4148 27.2557C15.0682 27.2557 13.9091 26.983 12.9375 26.4375C11.9716 25.8864 11.2273 25.108 10.7045 24.1023C10.1818 23.0909 9.92045 21.8949 9.92045 20.5142C9.92045 19.1676 10.1818 17.9858 10.7045 16.9688C11.2273 15.9517 11.9631 15.1591 12.9119 14.5909C13.8665 14.0227 14.9858 13.7386 16.2699 13.7386C17.1335 13.7386 17.9375 13.8778 18.6818 14.1562C19.4318 14.429 20.0852 14.8409 20.642 15.392C21.2045 15.9432 21.642 16.6364 21.9545 17.4716C22.267 18.3011 22.4233 19.2727 22.4233 20.3864V21.3835H11.3693V19.1335H19.0057C19.0057 18.6108 18.892 18.1477 18.6648 17.7443C18.4375 17.3409 18.1222 17.0256 17.7188 16.7983C17.321 16.5653 16.858 16.4489 16.3295 16.4489C15.7784 16.4489 15.2898 16.5767 14.8636 16.8324C14.4432 17.0824 14.1136 17.4205 13.875 17.8466C13.6364 18.267 13.5142 18.7358 13.5085 19.2528V21.392C13.5085 22.0398 13.6278 22.5994 13.8665 23.071C14.1108 23.5426 14.4545 23.9062 14.8977 24.1619C15.3409 24.4176 15.8665 24.5455 16.4744 24.5455C16.8778 24.5455 17.2472 24.4886 17.5824 24.375C17.9176 24.2614 18.2045 24.0909 18.4432 23.8636C18.6818 23.6364 18.8636 23.358 18.9886 23.0284L22.3466 23.25C22.1761 24.0568 21.8267 24.7614 21.2983 25.3636C20.7756 25.9602 20.0994 26.4261 19.2699 26.7614C18.446 27.0909 17.4943 27.2557 16.4148 27.2557ZM26.9148 27.2216C26.3523 27.2216 25.8693 27.0227 25.4659 26.625C25.0682 26.2216 24.8693 25.7386 24.8693 25.1761C24.8693 24.6193 25.0682 24.142 25.4659 23.7443C25.8693 23.3466 26.3523 23.1477 26.9148 23.1477C27.4602 23.1477 27.9375 23.3466 28.3466 23.7443C28.7557 24.142 28.9602 24.6193 28.9602 25.1761C28.9602 25.5511 28.8636 25.8949 28.6705 26.2074C28.483 26.5142 28.2358 26.7614 27.929 26.9489C27.6222 27.1307 27.2841 27.2216 26.9148 27.2216Z" fill="white"/>
<path d="M53.1378 27V13.9091H61.9588V16.1911H55.9055V19.3104H61.505V21.5923H55.9055V24.718H61.9844V27H53.1378ZM73.2615 17.1818L69.829 27H66.7608L63.3283 17.1818H66.2047L68.2438 24.2067H68.3461L70.3787 17.1818H73.2615ZM78.813 27.1918C77.8031 27.1918 76.9338 26.9872 76.2051 26.5781C75.4806 26.1648 74.9224 25.581 74.5304 24.8267C74.1383 24.0682 73.9423 23.1712 73.9423 22.1357C73.9423 21.1257 74.1383 20.2393 74.5304 19.4766C74.9224 18.7138 75.4743 18.1193 76.1859 17.6932C76.9018 17.267 77.7413 17.054 78.7044 17.054C79.3521 17.054 79.9551 17.1584 80.5133 17.3672C81.0758 17.5717 81.5659 17.8807 81.9835 18.294C82.4054 18.7074 82.7335 19.2273 82.9679 19.8537C83.2022 20.4759 83.3194 21.2045 83.3194 22.0398V22.7876H75.0289V21.1001H80.7562C80.7562 20.7081 80.671 20.3608 80.5005 20.0582C80.3301 19.7557 80.0936 19.5192 79.791 19.3487C79.4927 19.174 79.1454 19.0866 78.7491 19.0866C78.3358 19.0866 77.9693 19.1825 77.6497 19.3743C77.3343 19.5618 77.0872 19.8153 76.9082 20.1349C76.7292 20.4503 76.6376 20.8018 76.6333 21.1896V22.794C76.6333 23.2798 76.7228 23.6996 76.9018 24.0533C77.085 24.407 77.3429 24.6797 77.6752 24.8714C78.0076 25.0632 78.4018 25.1591 78.8578 25.1591C79.1603 25.1591 79.4373 25.1165 79.6887 25.0312C79.9402 24.946 80.1554 24.8182 80.3343 24.6477C80.5133 24.4773 80.6497 24.2685 80.7434 24.0213L83.2619 24.1875C83.1341 24.7926 82.872 25.321 82.4757 25.7727C82.0836 26.2202 81.5765 26.5696 80.9544 26.821C80.3365 27.0682 79.6227 27.1918 78.813 27.1918ZM87.8194 21.3239V27H85.0964V17.1818H87.6916V18.9141H87.8066C88.024 18.343 88.3883 17.8913 88.8997 17.5589C89.411 17.2223 90.0311 17.054 90.7598 17.054C91.4416 17.054 92.036 17.2031 92.5431 17.5014C93.0502 17.7997 93.4444 18.2259 93.7257 18.7798C94.0069 19.3295 94.1476 19.9858 94.1476 20.7486V27H91.4245V21.2344C91.4288 20.6335 91.2754 20.1648 90.9643 19.8281C90.6532 19.4872 90.225 19.3168 89.6795 19.3168C89.313 19.3168 88.9892 19.3956 88.7079 19.5533C88.4309 19.7109 88.2136 19.9411 88.0559 20.2436C87.9025 20.5419 87.8237 20.902 87.8194 21.3239ZM101.516 17.1818V19.2273H95.6033V17.1818H101.516ZM96.9457 14.8295H99.6687V23.983C99.6687 24.2344 99.707 24.4304 99.7837 24.571C99.8604 24.7074 99.967 24.8033 100.103 24.8587C100.244 24.9141 100.406 24.9418 100.589 24.9418C100.717 24.9418 100.845 24.9311 100.973 24.9098C101.1 24.8842 101.199 24.8651 101.267 24.8523L101.695 26.8786C101.559 26.9212 101.367 26.9702 101.12 27.0256C100.873 27.0852 100.572 27.1214 100.218 27.1342C99.5621 27.1598 98.9869 27.0724 98.4925 26.8722C98.0025 26.6719 97.6211 26.3608 97.3484 25.9389C97.0756 25.517 96.9414 24.9844 96.9457 24.3409V14.8295ZM109.586 22.8196V17.1818H112.309V27H109.695V25.2166H109.592C109.371 25.7919 109.002 26.2543 108.487 26.6037C107.975 26.9531 107.351 27.1278 106.614 27.1278C105.957 27.1278 105.38 26.9787 104.881 26.6804C104.383 26.3821 103.993 25.9581 103.712 25.4084C103.435 24.8587 103.294 24.2003 103.29 23.4332V17.1818H106.013V22.9474C106.017 23.527 106.173 23.9851 106.479 24.3217C106.786 24.6584 107.197 24.8267 107.713 24.8267C108.041 24.8267 108.348 24.7521 108.634 24.603C108.919 24.4496 109.149 24.2237 109.324 23.9254C109.503 23.6271 109.59 23.2585 109.586 22.8196ZM114.487 27V17.1818H117.082V18.9141H117.197C117.402 18.3388 117.743 17.8849 118.22 17.5526C118.697 17.2202 119.268 17.054 119.933 17.054C120.606 17.054 121.18 17.2223 121.653 17.5589C122.126 17.8913 122.441 18.343 122.599 18.9141H122.701C122.901 18.3516 123.263 17.902 123.787 17.5653C124.316 17.2244 124.94 17.054 125.66 17.054C126.577 17.054 127.32 17.3459 127.891 17.9297C128.466 18.5092 128.754 19.3317 128.754 20.397V27H126.037V20.9339C126.037 20.3885 125.893 19.9794 125.603 19.7067C125.313 19.4339 124.951 19.2976 124.516 19.2976C124.022 19.2976 123.636 19.4553 123.359 19.7706C123.082 20.0817 122.944 20.4929 122.944 21.0043V27H120.304V20.8764C120.304 20.3949 120.165 20.0114 119.888 19.7259C119.616 19.4403 119.256 19.2976 118.808 19.2976C118.506 19.2976 118.233 19.3743 117.99 19.5277C117.751 19.6768 117.562 19.8878 117.421 20.1605C117.28 20.429 117.21 20.7443 117.21 21.1065V27H114.487Z" fill="#E1E8F0"/>
<defs>
<linearGradient id="paint0_linear_103_182" x1="20" y1="0" x2="20" y2="40" gradientUnits="userSpaceOnUse">
<stop stop-color="#FCB045"/>
<stop offset="0.489583" stop-color="#FD1D1D" stop-opacity="0.6"/>
<stop offset="0.953125" stop-color="#1C8CD2" stop-opacity="0.77"/>
</linearGradient>
</defs>
</svg>
